# xmcd CD database file
#
# Track frame offsets:
#	150
#	19932
#	43066
#	71938
#	88865
#	106776
#	133718
#	155998
#	175542
#	201201
#	219944
#	244921
#	268237
#	292795
#	310067
#	329719
#
# Disc length: 4670 seconds
#
# Revision: 0
# Processed by: cddbd v1.5.1PL0 Copyright (c) Steve Scherf et al.
# Submitted via: CDex 1.51
#
DISCID=f3123c10
DTITLE=Various Artist - CDシングル2005/08
DYEAR=2005
DGENRE=JPop
TTITLE0=SMAP - BANG！BANG！バカンス！
TTITLE1=エイジアエンジニア - エターナルポーズ
TTITLE2=MCU feat. Ryoji(ケツメイシ)-いいわけ
TTITLE3=ORANGE RANGE  -  お願い！セニョリータ (PV音源)
TTITLE4=HOME MADE 家族 - 少年ハート
TTITLE5=オレンジレンジ-ラヴ・パレード
TTITLE6=サザンオールスターズ - BOHBO　No.5
TTITLE7=CHEMISTRY - Wings of Words
TTITLE8=GLAY×EXILE - SCREAM
TTITLE9=BENNIE K - Dreamland
TTITLE10=BUMP OF CHICKEN - プラネタリウム
TTITLE11=Mr.Children -  未来 [四次元 Four Dimensions]
TTITLE12=B'z - OCEAN
TTITLE13=UVERworld　　D-tecnoLife
TTITLE14=倖田來未 - Butterfly
TTITLE15=コブクロ - ここにしか咲かない花
EXTD=YEAR: 2005-08
EXTT0=
EXTT1=
EXTT2=
EXTT3=
EXTT4=
EXTT5=
EXTT6=
EXTT7=
EXTT8=
EXTT9=
EXTT10=
EXTT11=
EXTT12=
EXTT13=
EXTT14=
EXTT15=
PLAYORDER=
